<?xml version="1.0" standalone="no"?>
<!DOCTYPE svg PUBLIC "-//W3C//DTD SVG 20010904//EN"
 "http://www.w3.org/TR/2001/REC-SVG-20010904/DTD/svg10.dtd">
<svg version="1.0" xmlns="http://www.w3.org/2000/svg"
 width="256.000000pt" height="256.000000pt" viewBox="0 0 256.000000 256.000000"
 preserveAspectRatio="xMidYMid meet">
<metadata>
Created by SrRofly
</metadata>
<g transform="translate(0.000000,256.000000) scale(0.100000,-0.100000)"
fill="#000000" stroke="none">
<path d="M1244 2373 c-11 -2 -92 -62 -180 -134 l-159 -130 -5 69 c-8 104 -4
102 -201 102 -139 0 -170 -3 -183 -16 -14 -13 -16 -51 -17 -252 l0 -237 -250
-203 -250 -204 3 -36 c3 -34 5 -37 35 -37 26 0 56 20 157 103 69 56 127 102
130 102 4 0 6 -290 6 -644 l0 -645 22 -15 c20 -14 124 -16 918 -16 794 0 898
2 918 16 l22 15 0 645 c0 354 3 644 6 644 3 0 62 -47 132 -105 138 -113 172
-128 194 -81 6 14 8 31 5 39 -4 11 -1158 962 -1222 1007 -15 11 -57 17 -81 13z
m76 -138 c8 -7 189 -155 403 -329 l387 -317 0 -654 0 -655 -840 0 -840 0 0
655 0 654 401 328 c220 180 408 331 417 335 20 8 51 1 72 -17z m-520 -134 l0
-79 -95 -76 c-52 -42 -97 -76 -100 -76 -3 0 -5 70 -5 155 l0 155 100 0 100 0
0 -79z"/>
<path d="M800 1036 l0 -726 95 0 95 0 0 290 0 290 138 -1 137 0 240 -289 240
-289 123 -1 c67 0 122 3 121 8 0 4 -121 146 -268 317 l-268 310 61 33 c125 67
203 173 227 307 38 220 -70 389 -287 451 -47 14 -118 18 -356 21 l-298 5 0
-726z m595 533 c22 -8 61 -34 86 -59 39 -37 49 -55 58 -101 31 -149 -45 -289
-178 -330 -20 -6 -111 -14 -203 -16 l-168 -5 0 267 0 267 183 -5 c115 -3 197
-10 222 -18z"/>
</g>
</svg>
